solid OpenSCAD_Model
  facet normal 0.130527 -0.991445 0
    outer loop
      vertex 0 -7 6
      vertex 1.81173 -6.76148 8
      vertex 0 -7 8
    endloop
  endfacet
  facet normal 0.130527 -0.991445 0
    outer loop
      vertex 1.81173 -6.76148 8
      vertex 0 -7 6
      vertex 1.81173 -6.76148 6
    endloop
  endfacet
  facet normal 0.130527 -0.991445 0
    outer loop
      vertex 0 -7 0
      vertex 1.81173 -6.76148 5
      vertex 0 -7 5
    endloop
  endfacet
  facet normal 0.130527 -0.991445 0
    outer loop
      vertex 1.81173 -6.76148 5
      vertex 0 -7 0
      vertex 1.81173 -6.76148 0
    endloop
  endfacet
  facet normal -0.608761 -0.793354 0
    outer loop
      vertex -4.94975 -4.94975 0
      vertex -3.5 -6.06218 5
      vertex -4.94975 -4.94975 5
    endloop
  endfacet
  facet normal -0.608761 -0.793354 -0
    outer loop
      vertex -3.5 -6.06218 5
      vertex -4.94975 -4.94975 0
      vertex -3.5 -6.06218 0
    endloop
  endfacet
  facet normal 0.92388 -0.382681 0
    outer loop
      vertex 6.06218 -3.5 5
      vertex 6.76148 -1.81173 0
      vertex 6.76148 -1.81173 5
    endloop
  endfacet
  facet normal 0.92388 -0.382681 0
    outer loop
      vertex 6.76148 -1.81173 0
      vertex 6.06218 -3.5 5
      vertex 6.06218 -3.5 0
    endloop
  endfacet
  facet normal -0.793354 -0.608761 0
    outer loop
      vertex -4.94975 -4.94975 0
      vertex -6.06218 -3.5 5
      vertex -6.06218 -3.5 0
    endloop
  endfacet
  facet normal -0.793354 -0.608761 0
    outer loop
      vertex -6.06218 -3.5 5
      vertex -4.94975 -4.94975 0
      vertex -4.94975 -4.94975 5
    endloop
  endfacet
  facet normal 0.793354 -0.608761 0
    outer loop
      vertex 4.94975 -4.94975 5
      vertex 6.06218 -3.5 0
      vertex 6.06218 -3.5 5
    endloop
  endfacet
  facet normal 0.793354 -0.608761 0
    outer loop
      vertex 6.06218 -3.5 0
      vertex 4.94975 -4.94975 5
      vertex 4.94975 -4.94975 0
    endloop
  endfacet
  facet normal 0.608761 -0.793354 0
    outer loop
      vertex 3.5 -6.06218 0
      vertex 4.94975 -4.94975 5
      vertex 3.5 -6.06218 5
    endloop
  endfacet
  facet normal 0.608761 -0.793354 0
    outer loop
      vertex 4.94975 -4.94975 5
      vertex 3.5 -6.06218 0
      vertex 4.94975 -4.94975 0
    endloop
  endfacet
  facet normal 0 0 -1
    outer loop
      vertex 1.81173 -6.76148 0
      vertex 3 -4 0
      vertex 3.5 -6.06218 0
    endloop
  endfacet
  facet normal 0 0 -1
    outer loop
      vertex 0 -7 0
      vertex 3 -4 0
      vertex 1.81173 -6.76148 0
    endloop
  endfacet
  facet normal 0 0 -1
    outer loop
      vertex -3 -4 0
      vertex 0 -7 0
      vertex -1.81173 -6.76148 0
    endloop
  endfacet
  facet normal 0 0 -1
    outer loop
      vertex 0 -7 0
      vertex -3 -4 0
      vertex 3 -4 0
    endloop
  endfacet
  facet normal 0 0 -1
    outer loop
      vertex -3.5 -6.06218 0
      vertex -3 -4 0
      vertex -1.81173 -6.76148 0
    endloop
  endfacet
  facet normal 0 0 -1
    outer loop
      vertex -4.94975 -4.94975 0
      vertex -3 -4 0
      vertex -3.5 -6.06218 0
    endloop
  endfacet
  facet normal 0 0 -1
    outer loop
      vertex -6.06218 -3.5 0
      vertex -3 -4 0
      vertex -4.94975 -4.94975 0
    endloop
  endfacet
  facet normal 0 0 -1
    outer loop
      vertex -3 -4 0
      vertex -6.06218 -3.5 0
      vertex -3 0 0
    endloop
  endfacet
  facet normal 0 0 -1
    outer loop
      vertex -6.76148 -1.81173 0
      vertex -3 0 0
      vertex -6.06218 -3.5 0
    endloop
  endfacet
  facet normal -0 0 -1
    outer loop
      vertex -3 0 0
      vertex -6.76148 -1.81173 0
      vertex -7 0 0
    endloop
  endfacet
  facet normal 0 0 -1
    outer loop
      vertex 3 0 0
      vertex 6.76148 -1.81173 0
      vertex 6.06218 -3.5 0
    endloop
  endfacet
  facet normal 0 0 -1
    outer loop
      vertex 3 -4 0
      vertex 6.06218 -3.5 0
      vertex 4.94975 -4.94975 0
    endloop
  endfacet
  facet normal 0 0 -1
    outer loop
      vertex 3 -4 0
      vertex 4.94975 -4.94975 0
      vertex 3.5 -6.06218 0
    endloop
  endfacet
  facet normal 0 0 -1
    outer loop
      vertex 3 0 0
      vertex 6.06218 -3.5 0
      vertex 3 -4 0
    endloop
  endfacet
  facet normal 0 0 -1
    outer loop
      vertex 6.76148 -1.81173 0
      vertex 3 0 0
      vertex 7 0 0
    endloop
  endfacet
  facet normal -0.382683 -0.92388 0
    outer loop
      vertex -2.5 -6.47639 6
      vertex -1.81173 -6.76148 8
      vertex -2.5 -6.47639 8
    endloop
  endfacet
  facet normal -0.382683 -0.92388 -0
    outer loop
      vertex -1.81173 -6.76148 8
      vertex -2.5 -6.47639 6
      vertex -1.81173 -6.76148 6
    endloop
  endfacet
  facet normal -0.382681 -0.92388 0
    outer loop
      vertex -3.5 -6.06218 0
      vertex -1.81173 -6.76148 5
      vertex -3.5 -6.06218 5
    endloop
  endfacet
  facet normal -0.382681 -0.92388 -0
    outer loop
      vertex -1.81173 -6.76148 5
      vertex -3.5 -6.06218 0
      vertex -1.81173 -6.76148 0
    endloop
  endfacet
  facet normal -0.991445 -0.130527 0
    outer loop
      vertex -6.76148 -1.81173 0
      vertex -7 0 5
      vertex -7 0 0
    endloop
  endfacet
  facet normal -0.991445 -0.130527 0
    outer loop
      vertex -7 0 5
      vertex -6.76148 -1.81173 0
      vertex -6.76148 -1.81173 5
    endloop
  endfacet
  facet normal -0.130527 -0.991445 0
    outer loop
      vertex -1.81173 -6.76148 6
      vertex 0 -7 8
      vertex -1.81173 -6.76148 8
    endloop
  endfacet
  facet normal -0.130527 -0.991445 -0
    outer loop
      vertex 0 -7 8
      vertex -1.81173 -6.76148 6
      vertex 0 -7 6
    endloop
  endfacet
  facet normal -0.130527 -0.991445 0
    outer loop
      vertex -1.81173 -6.76148 0
      vertex 0 -7 5
      vertex -1.81173 -6.76148 5
    endloop
  endfacet
  facet normal -0.130527 -0.991445 -0
    outer loop
      vertex 0 -7 5
      vertex -1.81173 -6.76148 0
      vertex 0 -7 0
    endloop
  endfacet
  facet normal 0.382683 -0.92388 0
    outer loop
      vertex 1.81173 -6.76148 6
      vertex 2.5 -6.47639 8
      vertex 1.81173 -6.76148 8
    endloop
  endfacet
  facet normal 0.382683 -0.92388 0
    outer loop
      vertex 2.5 -6.47639 8
      vertex 1.81173 -6.76148 6
      vertex 2.5 -6.47639 6
    endloop
  endfacet
  facet normal 0.382681 -0.92388 0
    outer loop
      vertex 1.81173 -6.76148 0
      vertex 3.5 -6.06218 5
      vertex 1.81173 -6.76148 5
    endloop
  endfacet
  facet normal 0.382681 -0.92388 0
    outer loop
      vertex 3.5 -6.06218 5
      vertex 1.81173 -6.76148 0
      vertex 3.5 -6.06218 0
    endloop
  endfacet
  facet normal -0.92388 -0.382681 0
    outer loop
      vertex -6.06218 -3.5 0
      vertex -6.76148 -1.81173 5
      vertex -6.76148 -1.81173 0
    endloop
  endfacet
  facet normal -0.92388 -0.382681 0
    outer loop
      vertex -6.76148 -1.81173 5
      vertex -6.06218 -3.5 0
      vertex -6.06218 -3.5 5
    endloop
  endfacet
  facet normal 0 0 1
    outer loop
      vertex 2.5 -4 8
      vertex 1.81173 -6.76148 8
      vertex 2.5 -6.47639 8
    endloop
  endfacet
  facet normal 0 0 1
    outer loop
      vertex 2.5 -4 8
      vertex 0 -7 8
      vertex 1.81173 -6.76148 8
    endloop
  endfacet
  facet normal -0 0 1
    outer loop
      vertex -2.5 -4 8
      vertex 0 -7 8
      vertex 2.5 -4 8
    endloop
  endfacet
  facet normal 0 0 1
    outer loop
      vertex 0 -7 8
      vertex -2.5 -4 8
      vertex -1.81173 -6.76148 8
    endloop
  endfacet
  facet normal 0 0 1
    outer loop
      vertex -1.81173 -6.76148 8
      vertex -2.5 -4 8
      vertex -2.5 -6.47639 8
    endloop
  endfacet
  facet normal 0.991445 -0.130527 0
    outer loop
      vertex 6.76148 -1.81173 5
      vertex 7 0 0
      vertex 7 0 5
    endloop
  endfacet
  facet normal 0.991445 -0.130527 0
    outer loop
      vertex 7 0 0
      vertex 6.76148 -1.81173 5
      vertex 6.76148 -1.81173 0
    endloop
  endfacet
  facet normal -1 0 0
    outer loop
      vertex 3 -4 0
      vertex 3 0 5
      vertex 3 0 0
    endloop
  endfacet
  facet normal -1 -0 0
    outer loop
      vertex 3 0 5
      vertex 3 -4 0
      vertex 3 -4 5
    endloop
  endfacet
  facet normal 1 -0 0
    outer loop
      vertex -3 -4 5
      vertex -3 0 0
      vertex -3 0 5
    endloop
  endfacet
  facet normal 1 0 0
    outer loop
      vertex -3 0 0
      vertex -3 -4 5
      vertex -3 -4 0
    endloop
  endfacet
  facet normal 0 1 -0
    outer loop
      vertex 3 -4 0
      vertex 2.5 -4 5
      vertex 3 -4 5
    endloop
  endfacet
  facet normal 0 1 0
    outer loop
      vertex 2.5 -4 5
      vertex 3 -4 0
      vertex -2.5 -4 5
    endloop
  endfacet
  facet normal 0 1 0
    outer loop
      vertex -3 -4 0
      vertex -2.5 -4 5
      vertex 3 -4 0
    endloop
  endfacet
  facet normal 0 1 0
    outer loop
      vertex -2.5 -4 5
      vertex -3 -4 0
      vertex -3 -4 5
    endloop
  endfacet
  facet normal 0 1 -0
    outer loop
      vertex 2.5 -4 5
      vertex -2.5 -4 8
      vertex 2.5 -4 8
    endloop
  endfacet
  facet normal 0 1 0
    outer loop
      vertex -2.5 -4 8
      vertex 2.5 -4 5
      vertex -2.5 -4 5
    endloop
  endfacet
  facet normal 0 0 1
    outer loop
      vertex -2.5 -4 5
      vertex -3 -4 5
      vertex -2.5 -5.5 5
    endloop
  endfacet
  facet normal -0 0 1
    outer loop
      vertex 3 0 5
      vertex 6.76148 -1.81173 5
      vertex 7 0 5
    endloop
  endfacet
  facet normal 0 0 1
    outer loop
      vertex 6.76148 -1.81173 5
      vertex 3 0 5
      vertex 6.06218 -3.5 5
    endloop
  endfacet
  facet normal 0 0 1
    outer loop
      vertex 6.06218 -3.5 5
      vertex 3 -4 5
      vertex 4.94975 -4.94975 5
    endloop
  endfacet
  facet normal 0 0 1
    outer loop
      vertex 6.06218 -3.5 5
      vertex 3 0 5
      vertex 3 -4 5
    endloop
  endfacet
  facet normal 0 0 1
    outer loop
      vertex 4.94975 -4.94975 5
      vertex 3 -4 5
      vertex 3.5 -6.06218 5
    endloop
  endfacet
  facet normal 0 0 1
    outer loop
      vertex 2.5 -5.5 5
      vertex 3 -4 5
      vertex 2.5 -4 5
    endloop
  endfacet
  facet normal 0 0 1
    outer loop
      vertex 3 -4 5
      vertex 2.5 -5.5 5
      vertex 3.5 -6.06218 5
    endloop
  endfacet
  facet normal 0 0 1
    outer loop
      vertex 2.5 -5.5 5
      vertex 1.81173 -6.76148 5
      vertex 3.5 -6.06218 5
    endloop
  endfacet
  facet normal 0 0 1
    outer loop
      vertex 2.5 -5.5 5
      vertex 0 -7 5
      vertex 1.81173 -6.76148 5
    endloop
  endfacet
  facet normal -0 0 1
    outer loop
      vertex -2.5 -5.5 5
      vertex 0 -7 5
      vertex 2.5 -5.5 5
    endloop
  endfacet
  facet normal 0 0 1
    outer loop
      vertex 0 -7 5
      vertex -2.5 -5.5 5
      vertex -1.81173 -6.76148 5
    endloop
  endfacet
  facet normal 0 0 1
    outer loop
      vertex -2.5 -5.5 5
      vertex -3.5 -6.06218 5
      vertex -1.81173 -6.76148 5
    endloop
  endfacet
  facet normal 0 0 1
    outer loop
      vertex -3.5 -6.06218 5
      vertex -2.5 -5.5 5
      vertex -3 -4 5
    endloop
  endfacet
  facet normal -0 0 1
    outer loop
      vertex -6.06218 -3.5 5
      vertex -3 -4 5
      vertex -3 0 5
    endloop
  endfacet
  facet normal 0 0 1
    outer loop
      vertex -3 -4 5
      vertex -4.94975 -4.94975 5
      vertex -3.5 -6.06218 5
    endloop
  endfacet
  facet normal 0 0 1
    outer loop
      vertex -3 -4 5
      vertex -6.06218 -3.5 5
      vertex -4.94975 -4.94975 5
    endloop
  endfacet
  facet normal 0 0 1
    outer loop
      vertex -3 0 5
      vertex -6.76148 -1.81173 5
      vertex -6.06218 -3.5 5
    endloop
  endfacet
  facet normal 0 -0 1
    outer loop
      vertex -6.76148 -1.81173 5
      vertex -3 0 5
      vertex -7 0 5
    endloop
  endfacet
  facet normal 1 0 0
    outer loop
      vertex 2.5 -4 8
      vertex 2.5 -5.5 6
      vertex 2.5 -4 5
    endloop
  endfacet
  facet normal 1 -0 0
    outer loop
      vertex 2.5 -6.47639 8
      vertex 2.5 -5.5 6
      vertex 2.5 -4 8
    endloop
  endfacet
  facet normal 1 0 0
    outer loop
      vertex 2.5 -5.5 6
      vertex 2.5 -6.47639 8
      vertex 2.5 -6.47639 6
    endloop
  endfacet
  facet normal 1 0 0
    outer loop
      vertex 2.5 -4 5
      vertex 2.5 -5.5 6
      vertex 2.5 -5.5 5
    endloop
  endfacet
  facet normal -1 0 0
    outer loop
      vertex -2.5 -5.5 6
      vertex -2.5 -4 5
      vertex -2.5 -5.5 5
    endloop
  endfacet
  facet normal -1 0 0
    outer loop
      vertex -2.5 -4 5
      vertex -2.5 -5.5 6
      vertex -2.5 -4 8
    endloop
  endfacet
  facet normal -1 0 0
    outer loop
      vertex -2.5 -6.47639 8
      vertex -2.5 -5.5 6
      vertex -2.5 -6.47639 6
    endloop
  endfacet
  facet normal -1 0 0
    outer loop
      vertex -2.5 -5.5 6
      vertex -2.5 -6.47639 8
      vertex -2.5 -4 8
    endloop
  endfacet
  facet normal 0 0 -1
    outer loop
      vertex 1.81173 -6.76148 6
      vertex 2.5 -5.5 6
      vertex 2.5 -6.47639 6
    endloop
  endfacet
  facet normal 0 0 -1
    outer loop
      vertex 0 -7 6
      vertex 2.5 -5.5 6
      vertex 1.81173 -6.76148 6
    endloop
  endfacet
  facet normal 0 0 -1
    outer loop
      vertex -2.5 -5.5 6
      vertex 0 -7 6
      vertex -1.81173 -6.76148 6
    endloop
  endfacet
  facet normal 0 0 -1
    outer loop
      vertex -2.5 -5.5 6
      vertex -1.81173 -6.76148 6
      vertex -2.5 -6.47639 6
    endloop
  endfacet
  facet normal 0 0 -1
    outer loop
      vertex 0 -7 6
      vertex -2.5 -5.5 6
      vertex 2.5 -5.5 6
    endloop
  endfacet
  facet normal 0 -1 0
    outer loop
      vertex -2.5 -5.5 5
      vertex 2.5 -5.5 6
      vertex -2.5 -5.5 6
    endloop
  endfacet
  facet normal 0 -1 -0
    outer loop
      vertex 2.5 -5.5 6
      vertex -2.5 -5.5 5
      vertex 2.5 -5.5 5
    endloop
  endfacet
  facet normal 0 1 -0
    outer loop
      vertex 7 0 0
      vertex 3 0 5
      vertex 7 0 5
    endloop
  endfacet
  facet normal 0 1 0
    outer loop
      vertex 3 0 5
      vertex 7 0 0
      vertex 3 0 0
    endloop
  endfacet
  facet normal 0 1 -0
    outer loop
      vertex -3 0 0
      vertex -7 0 5
      vertex -3 0 5
    endloop
  endfacet
  facet normal 0 1 0
    outer loop
      vertex -7 0 5
      vertex -3 0 0
      vertex -7 0 0
    endloop
  endfacet
endsolid OpenSCAD_Model
